<svg width="110" height="28" viewBox="0 0 110 28" fill="none" xmlns="http://www.w3.org/2000/svg">
<g id="Group">
<path id="Vector" d="M26.3972 7.74207C26.8765 7.74207 27.3362 7.94061 27.6751 8.29401C28.014 8.64741 28.2044 9.12671 28.2044 9.62649V19.9373C28.2062 21.5909 27.7196 23.2049 26.8106 24.5599C25.9017 25.9149 24.6145 26.9451 23.1242 27.5104C21.6339 28.0756 20.0129 28.1485 18.4815 27.7191C16.95 27.2897 15.5826 26.3789 14.5652 25.1105C13.5435 26.3749 12.1743 27.282 10.6425 27.7093C9.11076 28.1366 7.49013 28.0636 5.99941 27.5001C4.50868 26.9367 3.21964 25.9098 2.30628 24.5582C1.39293 23.2067 0.899236 21.5954 0.891846 19.942V9.62649C0.89245 9.1265 1.08336 8.64719 1.42263 8.29386C1.7619 7.94054 2.22179 7.74207 2.70129 7.74207C3.18058 7.74207 3.64023 7.94061 3.97914 8.29401C4.31805 8.64741 4.50845 9.12671 4.50845 9.62649V19.8826C4.4921 20.8839 4.81488 21.8591 5.42001 22.6368C5.95511 23.3239 6.68047 23.8221 7.49714 24.0635C8.31381 24.3049 9.18202 24.2777 9.98331 23.9856C10.7846 23.6934 11.4799 23.1507 11.9745 22.4313C12.469 21.7119 12.7387 20.8509 12.7466 19.9658V9.62649C12.7466 9.12671 12.937 8.64741 13.2759 8.29401C13.6149 7.94061 14.0745 7.74207 14.5538 7.74207C14.7913 7.74175 15.0266 7.79027 15.2461 7.88483C15.4656 7.97939 15.6651 8.11815 15.8331 8.29317C16.0012 8.46818 16.1345 8.67601 16.2255 8.90479C16.3164 9.13358 16.3632 9.37883 16.3632 9.62649V19.9658C16.355 20.5295 16.4577 21.0891 16.6651 21.6098C16.8724 22.1305 17.18 22.6014 17.5688 22.9932C17.9794 23.411 18.4688 23.7351 19.006 23.9452C19.5432 24.1552 20.1164 24.2464 20.6892 24.2131C21.262 24.1798 21.8219 24.0227 22.3334 23.7517C22.8448 23.4808 23.2967 23.1019 23.6603 22.6391C24.2659 21.8618 24.5888 20.8864 24.5718 19.885V9.62649C24.5718 9.12671 24.7622 8.64741 25.1011 8.29401C25.44 7.94061 25.8997 7.74207 26.379 7.74207H26.3972Z" fill="#2E2525"/>
<path id="Vector_2" d="M55.8838 26.106V18.0266C55.8592 15.4187 56.7872 12.8989 58.4794 10.9785C60.4287 8.8192 62.7949 7.73877 65.5782 7.73718C68.1566 7.73781 70.6292 8.80597 72.4527 10.7069C74.2761 12.6078 75.301 15.1859 75.3022 17.8745V26.1013C75.3016 26.6013 75.1107 27.0806 74.7715 27.4339C74.4322 27.7872 73.9723 27.9857 73.4928 27.9857C73.0135 27.9857 72.5538 27.7871 72.2149 27.4338C71.876 27.0804 71.6856 26.601 71.6856 26.1013V17.8793C71.6956 17.05 71.5447 16.2272 71.242 15.4603C70.9393 14.6934 70.491 13.9982 69.9241 13.4165C69.3558 12.8163 68.6793 12.3393 67.9334 12.013C67.1875 11.6867 66.3871 11.5176 65.5782 11.5155C64.7777 11.5026 63.9832 11.6608 63.2436 11.9804C62.504 12.3 61.835 12.7742 61.2779 13.3738C60.7035 13.9614 60.2495 14.6646 59.9436 15.4408C59.6376 16.2169 59.4861 17.0497 59.4981 17.8888V26.1155C59.4981 26.6153 59.3077 27.0946 58.9688 27.448C58.6299 27.8014 58.1702 27.9999 57.6909 27.9999C57.4528 27.9999 57.2171 27.9509 56.9973 27.8556C56.7774 27.7603 56.5778 27.6206 56.4099 27.4447C56.2419 27.2687 56.109 27.0598 56.0187 26.8301C55.9284 26.6003 55.8826 26.3543 55.8838 26.106Z" fill="#2E2525"/>
<path id="Vector_3" d="M82.3145 7.74207C82.7938 7.74207 83.2534 7.94061 83.5924 8.29401C83.9313 8.6474 84.1217 9.12671 84.1217 9.62649V26.1062C84.1217 26.6059 83.9313 27.0852 83.5924 27.4386C83.2534 27.792 82.7938 27.9906 82.3145 27.9906C81.8352 27.9906 81.3755 27.792 81.0366 27.4386C80.6977 27.0852 80.5073 26.6059 80.5073 26.1062V9.62649C80.5073 9.12671 80.6977 8.6474 81.0366 8.29401C81.3755 7.94061 81.8352 7.74207 82.3145 7.74207Z" fill="#2E2525"/>
<path id="Vector_4" d="M107.574 7.74198C107.877 7.74172 108.175 7.8212 108.44 7.97305C108.706 8.12489 108.93 8.34418 109.093 8.61058C109.255 8.87697 109.351 9.18185 109.37 9.49693C109.389 9.81202 109.332 10.1271 109.204 10.413L102.182 26.0966C101.635 27.3513 100.695 27.9794 99.361 27.981C98.7606 28.0105 98.1661 27.8463 97.6584 27.5108C97.1507 27.1753 96.7545 26.6848 96.5238 26.1061L89.5093 10.4225C89.3837 10.1342 89.3291 9.81783 89.3505 9.50199C89.3718 9.18616 89.4685 8.88091 89.6318 8.61393C89.795 8.34694 90.0196 8.12669 90.2851 7.97318C90.5507 7.81966 90.8488 7.73775 91.1524 7.73486C91.4968 7.73652 91.8337 7.83984 92.1241 8.03287C92.4144 8.22591 92.6464 8.50074 92.7932 8.82558L98.9052 22.4703C98.9454 22.5642 99.0108 22.6438 99.0935 22.6997C99.1762 22.7557 99.2727 22.7854 99.3712 22.7854C99.4698 22.7854 99.5663 22.7557 99.649 22.6997C99.7317 22.6438 99.7971 22.5642 99.8373 22.4703L105.952 8.81608C106.097 8.49289 106.328 8.21956 106.617 8.02809C106.906 7.83661 107.241 7.7349 107.583 7.73486L107.574 7.74198Z" fill="#2E2525"/>
<path id="Vector_5" d="M51.7521 17.8674C51.752 15.5489 50.9886 13.3008 49.5896 11.4987C48.1906 9.69665 46.2408 8.44996 44.0661 7.96704C41.8914 7.48412 39.6237 7.79422 37.6419 8.84554C35.6602 9.89685 34.0846 11.6256 33.1786 13.7429C32.2725 15.8602 32.0909 18.2376 32.6641 20.4777C33.2373 22.7179 34.5305 24.6849 36.3277 26.0501C38.1248 27.4153 40.3169 28.0959 42.5375 27.978C44.7581 27.8602 46.8726 26.9511 48.5275 25.4027C48.7959 25.1435 48.9834 24.8061 49.0655 24.4343C49.1476 24.0625 49.1205 23.6736 48.9877 23.3181C48.855 22.9626 48.6228 22.6569 48.3212 22.4409C48.0197 22.2249 47.6627 22.1085 47.2969 22.1068C46.8381 22.1135 46.3974 22.2943 46.0572 22.6153C45.2984 23.311 44.3851 23.7982 43.4001 24.0328C42.4151 24.2675 41.3896 24.242 40.4164 23.9588C39.4432 23.6756 38.5532 23.1436 37.827 22.4111C37.1009 21.6785 36.5615 20.7686 36.2579 19.7637H49.9313C50.414 19.7688 50.879 19.574 51.2242 19.2221C51.5694 18.8702 51.7666 18.3898 51.7726 17.8864L51.7521 17.8674ZM36.2556 15.9664C36.6425 14.6795 37.4132 13.555 38.4556 12.7566C39.4979 11.9582 40.7575 11.5277 42.0509 11.5277C43.3442 11.5277 44.6038 11.9582 45.6462 12.7566C46.6885 13.555 47.4593 14.6795 47.8461 15.9664H36.2556Z" fill="#2E2525"/>
<path id="Vector_6" d="M82.3144 4.98549C83.6347 4.98549 84.7049 3.86945 84.7049 2.49274C84.7049 1.11604 83.6347 0 82.3144 0C80.9941 0 79.9238 1.11604 79.9238 2.49274C79.9238 3.86945 80.9941 4.98549 82.3144 4.98549Z" fill="#2E2525"/>
</g>
</svg>
